<?xml version="1.0" standalone="no"?>
<!DOCTYPE svg PUBLIC "-//W3C//DTD SVG 20010904//EN"
 "http://www.w3.org/TR/2001/REC-SVG-20010904/DTD/svg10.dtd">
<svg version="1.0" xmlns="http://www.w3.org/2000/svg"
 width="700.000000pt" height="700.000000pt" viewBox="0 0 700.000000 700.000000"
 preserveAspectRatio="xMidYMid meet">
<metadata>
Created by potrace 1.14, written by Peter Selinger 2001-2017
</metadata>
<g transform="translate(0.000000,700.000000) scale(0.100000,-0.100000)"
fill="#000000" stroke="none">
<path d="M3403 6285 c-65 -20 -128 -61 -167 -108 -49 -60 -2512 -4989 -2527
-5057 -44 -205 113 -409 320 -416 77 -3 70 -5 596 146 61 17 117 33 125 35 8
2 85 24 170 49 85 24 346 99 580 166 234 67 447 133 473 148 61 33 112 89 146
161 l26 56 6 880 c3 484 7 887 10 895 35 104 97 178 187 222 60 30 76 33 152
33 76 0 93 -4 152 -33 77 -38 130 -92 167 -171 l26 -56 5 -890 5 -890 27 -52
c70 -132 122 -164 393 -238 55 -15 118 -33 140 -40 53 -16 65 -20 455 -130
184 -53 358 -102 385 -110 201 -60 588 -169 625 -177 112 -23 254 23 326 105
76 88 110 212 85 314 -20 78 -2489 5008 -2534 5059 -56 64 -149 106 -240 110
-40 1 -91 -4 -114 -11z"/>
</g>
</svg>
